inDegrees=yes
name=ik_S53_A05_T02
DataType=double
version=3
OpenSimVersion=4.3-2021-08-27-4bc7ad9
endheader
time	pelvis_tilt	pelvis_list	pelvis_rotation	pelvis_tx	pelvis_ty	pelvis_tz	hip_flexion_r	hip_adduction_r	hip_rotation_r	knee_angle_r	knee_angle_r_beta	ankle_angle_r	subtalar_angle_r	mtp_angle_r	hip_flexion_l	hip_adduction_l	hip_rotation_l	knee_angle_l	knee_angle_l_beta	ankle_angle_l	subtalar_angle_l	mtp_angle_l	lumbar_extension	lumbar_bending	lumbar_rotation	arm_flex_r	arm_add_r	arm_rot_r	elbow_flex_r	pro_sup_r	wrist_flex_r	wrist_dev_r	arm_flex_l	arm_add_l	arm_rot_l	elbow_flex_l	pro_sup_l	wrist_flex_l	wrist_dev_l
21.80000000000004	-2.695889672085139	-4.274747196511444	38.30289319610472	0	0.9399999999999999	0	29.63308010711288	-9.397808004184819	-8.599477670902095	32.68701104254956	0.5704959653282342	0	0	0	29.63308010711288	-9.397808004184819	-8.599477670902095	32.68701104254956	0.5704959653282342	0	0	0	-2.830579683511614	-2.448575596951949	-1.77516583736493	72.62164825202792	33.74767747772166	11.03045710781268	16.17807624540763	109.903488503261	0	0	38.54675101327796	-10.58172928166469	0.4415505976817108	20.33075837482673	124.3554932618571	0	0
21.81666666666671	-2.697605609385886	-4.288010309634637	38.33668748254502	0	0.9399999999999999	0	29.6359365689566	-9.398180811127022	-8.600035217922738	32.69003869989929	0.5705488079176091	0	0	0	29.6359365689566	-9.398180811127022	-8.600035217922738	32.69003869989929	0.5705488079176091	0	0	0	-2.840466839384507	-2.457738746551951	-1.77590124309605	72.61225642427407	33.82836608322275	11.04118961664727	16.01727923023561	110.031855471937	0	0	38.57246731691444	-10.5595751676815	0.4730547506178537	20.31752180379875	124.3462620290471	0	0
21.83333333333337	-2.694441941204454	-4.297059299115275	38.36353494071954	0	0.9399999999999999	0	29.63860286489804	-9.398528199143138	-8.600555107301126	32.69286816385272	0.5705981913796628	0	0	0	29.63860286489804	-9.398528199143138	-8.600555107301126	32.69286816385272	0.5705981913796628	0	0	0	-2.844147617071736	-2.466198885078396	-1.781292904269182	72.59098146369162	33.93517604395521	11.06048492057346	15.84290330909077	109.9835360169918	0	0	38.58620797625908	-10.55994758611806	0.5020442341785402	20.31472651470748	124.350452071851	0	0
21.85000000000004	-2.698800687239767	-4.315892791630913	38.37811154233646	0	0.9399999999999999	0	29.6418571216161	-9.398953241065568	-8.601190690835892	32.69631293193014	0.5706583139245814	0	0	0	29.6418571216161	-9.398953241065568	-8.601190690835892	32.69631293193014	0.5706583139245814	0	0	0	-2.860477896050222	-2.476635395761431	-1.796337119605978	72.58420801356617	34.05750229252415	11.08770343827291	15.63850771775135	109.8691990559764	0	0	38.60440963792377	-10.57238541114315	0.4771652489970055	20.32373608988072	124.3834759873401	0	0
21.86666666666671	-2.716775826444823	-4.338649884251225	38.38434167130382	0	0.9399999999999999	0	29.66608361139994	-9.401171797882427	-8.605201007728278	32.72246747627614	0.571114796837778	0	0	0	29.66608361139994	-9.401171797882427	-8.605201007728278	32.72246747627614	0.571114796837778	0	0	0	-2.89259524847304	-2.479784271505233	-1.823117223820737	72.68547045146698	34.14080211380075	11.22281078016	15.5719787274049	109.721238903887	0	0	38.66282789975304	-10.57659709923484	0.4684257938514372	20.34249263790367	124.4057327226486	0	0
21.88333333333337	-2.714071624450165	-4.354535127730929	38.4083105421313	0	0.9399999999999999	0	29.66727164960492	-9.401322747928077	-8.605429045213711	32.72375264041999	0.5711372271835168	1.645969875652567e-35	0	0	29.66727164960492	-9.401322747928077	-8.605429045213711	32.72375264041999	0.5711372271835168	1.645969875652567e-35	0	0	-2.900342315469883	-2.494082438570861	-1.821508300949731	72.61796043221763	34.19882406500567	11.22646941233097	15.47564639372249	109.650080936293	0	0	38.68133563224281	-10.56120579978757	0.5139908356272563	20.36500150476637	124.4205538252213	0	0
21.90000000000004	-2.702130068977727	-4.359554181396665	38.44406994652489	0	0.9399999999999999	0	29.66944764326254	-9.401601492299404	-8.605848914926121	32.72608967662539	0.5711780161600393	0	0	0	29.66944764326254	-9.401601492299404	-8.605848914926121	32.72608967662539	0.5711780161600393	0	0	0	-2.895422969166427	-2.503565993828545	-1.840477636490064	72.60041019781731	34.2905671968761	11.37458668515326	15.29436137802493	109.4688639462427	0	-5.38806921148701e-36	38.6595310423798	-10.57034774721184	0.5734502717373396	20.36410600355488	124.3808006478651	0	-5.38806921148701e-36
21.9166666666667	-2.704032864213619	-4.384962994929785	38.47375091239409	0	0.9399999999999999	0	29.67128179164265	-9.401837200922863	-8.606203547412374	32.72805415101237	0.5712123027061632	0	0	0	29.67128179164265	-9.401837200922863	-8.606203547412374	32.72805415101237	0.5712123027061632	0	0	0	-2.913195366287411	-2.521725346104128	-1.845355108960963	72.58160713848032	34.33731441672789	11.52519402326885	15.19340451605047	109.4365900955031	0	3.621077020032971e-54	38.69386256633595	-10.57449451242612	0.6297624784254856	20.38632137944633	124.4003457363968	0	3.621077020032971e-54
21.93333333333337	-2.723588098256307	-4.394064474913596	38.49429709452897	0	0.9399999999999999	0	29.6739262211731	-9.402175821793184	-8.60671367143277	32.7308953254536	0.5712618905547864	0	0	0	29.6739262211731	-9.402175821793184	-8.60671367143277	32.7308953254536	0.5712618905547864	0	0	0	-2.934558278315915	-2.516449035752988	-1.845636532644095	72.53959451939312	34.3677033842257	11.69995532372835	15.04412766972133	109.4618057030417	0	0	38.72946708261138	-10.54857794750668	0.7569610361784712	20.38260346940542	124.2994084069078	0	0
21.95000000000003	-2.726542460137891	-4.418645789744267	38.52309926348281	0	0.9399999999999999	0	29.67519660003312	-9.402336257814385	-8.606956615054012	32.73227550454113	0.5712859792241308	0	0	0	29.67519660003312	-9.402336257814385	-8.606956615054012	32.73227550454113	0.5712859792241308	0	0	0	-2.951997923025853	-2.534295103987652	-1.840752827566397	72.48604101062472	34.35674883825952	11.79826580807465	14.93561251623968	109.576897785578	0	0	38.77492767484235	-10.56162816573895	0.8231250518977082	20.40324382770439	124.3172110100334	0	0
21.9666666666667	-2.743440310183475	-4.411863801026394	38.54291719460698	0	0.9399999999999999	0	29.67802863008693	-9.402700473103712	-8.60750451896126	32.73530487476508	0.5713388517088007	0	0	0	29.67802863008693	-9.402700473103712	-8.60750451896126	32.73530487476508	0.5713388517088007	0	0	0	-2.960865105410403	-2.519045611218067	-1.833051952900992	72.4184902665391	34.33327883230268	11.84457943007245	14.72516768738006	109.8618665764635	0	0	38.81564757476697	-10.48571457084914	0.820539285488883	20.38184005759579	124.3005351591189	0	0
21.98333333333337	-2.751100067421342	-4.414214534664265	38.56230758240536	0	0.9399999999999999	0	29.68137447659115	-9.403131349888424	-8.608152413987833	32.73887897747838	0.5714012315689522	0	0	0	29.68137447659115	-9.403131349888424	-8.608152413987833	32.73887897747838	0.5714012315689522	0	0	0	-2.967960059610495	-2.517206222326467	-1.821209100388012	72.34384168564644	34.31836566846724	11.82712290947005	14.48679211688434	110.1701156621851	0	0	38.83500337166714	-10.45894847547767	0.8365957693009884	20.37042925959019	124.3035806208745	0	0
22.00000000000003	-2.757627287912601	-4.432071866446928	38.56076796187056	0	0.9399999999999999	0	29.6853491640216	-9.403646960294664	-8.608925749548153	32.74309618734645	0.5714748357663977	0	0	0	29.6853491640216	-9.403646960294664	-8.608925749548153	32.74309618734645	0.5714748357663977	0	0	0	-2.984238032606092	-2.527555593315544	-1.815221963868382	72.28900689330189	34.3234961228026	11.81539301952935	14.21120324745924	110.3546636659678	0	0	38.87381731955813	-10.46463219517447	0.8490188144198904	20.36914954566699	124.3106513402962	0	0
22.0166666666667	-2.750960413892861	-4.435282727504649	38.56707139691124	0	0.9399999999999999	0	29.7070632972017	-9.405744997329773	-8.61259582073512	32.76650061292196	0.5718833200522282	0	0	0	29.7070632972017	-9.405744997329773	-8.61259582073512	32.76650061292196	0.5718833200522282	0	0	0	-2.98270240168702	-2.533966593860285	-1.808693125110713	72.28313118916304	34.32201683959518	11.80733337127422	14.21254265544434	110.3457936564467	0	0	38.86756097267141	-10.4531509120127	0.8733727427594119	20.38504820870303	124.298903185627	0	0
22.03333333333336	-2.758894423327357	-4.441504794818083	38.56124949289163	0	0.9399999999999999	0	29.71052518980531	-9.40619296112005	-8.613268489458296	32.77017428016961	0.5719474376413224	0	0	0	29.71052518980531	-9.40619296112005	-8.613268489458296	32.77017428016961	0.5719474376413224	0	0	0	-2.992874167640464	-2.534198782431809	-1.804028221303622	72.1859819774099	34.33543282961779	11.82655178749373	13.93979269153332	110.442299761403	0	0	38.87456217663473	-10.44608134772503	0.9019026988456851	20.38093141854732	124.2477159681336	0	0
22.05000000000003	-2.756761697724006	-4.465740509763222	38.56712533406851	0	0.9399999999999999	0	29.71426916130903	-9.406678070736742	-8.61399664201085	32.77414124623087	0.5720166742604063	0	0	0	29.71426916130903	-9.406678070736742	-8.61399664201085	32.77414124623087	0.5720166742604063	0	0	0	-3.005934091406896	-2.555579915977447	-1.792631998614696	72.10073925025434	34.33439140253277	11.83717460634088	13.67663754968991	110.4085572870992	0	0	38.92031059222518	-10.45655997628599	0.9592465850358216	20.36640686502648	124.2079711317549	0	0
